<svg width="200" height="52" viewBox="0 0 200 52" fill="none" xmlns="http://www.w3.org/2000/svg">
<g clip-path="url(#clip0_4578_44595)">
<path d="M129.039 9.18866C126.999 8.74104 125.197 7.55497 123.979 5.85865C122.762 4.16233 122.214 2.0756 122.443 0C122.345 0.443508 122.212 0.878462 122.045 1.30068C121.582 2.43299 120.772 3.38969 119.732 4.03396C118.692 4.67823 117.475 4.97706 116.254 4.88769C78.6961 2.49153 48.3467 28.7063 48.3467 28.7063C74.3605 9.71762 104.187 8.58168 114.49 9.35776C115.263 9.41389 116.017 9.62409 116.708 9.97601C117.399 10.3279 118.012 10.8144 118.512 11.4069C119.012 11.9994 119.389 12.6859 119.619 13.4261C119.85 14.1662 119.93 14.945 119.856 15.7167V15.7831C120.304 13.7451 121.489 11.9445 123.184 10.7273C124.879 9.51008 126.964 8.96213 129.039 9.18866Z" fill="white"/>
<path fill-rule="evenodd" clip-rule="evenodd" d="M147.806 15.9493C147.188 15.3269 146.698 14.5887 146.365 13.777C146.032 12.9653 145.862 12.096 145.866 11.2187C145.869 10.3414 146.044 9.47338 146.383 8.66407C146.722 7.85476 147.216 7.12004 147.839 6.50194C146.577 7.74198 144.877 8.43382 143.108 8.42705C141.339 8.42029 139.644 7.71548 138.392 6.46582C139.64 7.72345 140.338 9.42558 140.332 11.1978C140.326 12.9701 139.616 14.6673 138.358 15.9161C138.979 15.294 139.716 14.8011 140.528 14.4658C141.34 14.1305 142.211 13.9595 143.089 13.9625C143.967 13.9656 144.837 14.1428 145.646 14.4838C146.456 14.8248 147.19 15.3229 147.806 15.9493Z" fill="white"/>
<path fill-rule="evenodd" clip-rule="evenodd" d="M161.883 22.2909C161.736 21.609 161.724 20.9048 161.85 20.2186C161.975 19.5323 162.234 18.8774 162.612 18.2914C162.991 17.7053 163.481 17.1995 164.054 16.8028C164.628 16.4062 165.275 16.1265 165.957 15.9797C164.58 16.2689 163.145 16.003 161.963 15.2398C160.782 14.4766 159.949 13.2779 159.647 11.9042C159.794 12.5862 159.805 13.2905 159.68 13.9768C159.554 14.6631 159.295 15.318 158.917 15.9041C158.538 16.4902 158.048 16.996 157.474 17.3926C156.9 17.7891 156.253 18.0688 155.571 18.2154C156.254 18.0647 156.959 18.0508 157.647 18.1744C158.334 18.2981 158.991 18.557 159.577 18.936C160.164 19.315 160.67 19.8067 161.066 20.3826C161.462 20.9584 161.739 21.6071 161.883 22.2909Z" fill="white"/>
<path fill-rule="evenodd" clip-rule="evenodd" d="M173.045 29.4563C173.318 28.8891 173.699 28.3813 174.168 27.9616C174.637 27.542 175.184 27.2188 175.777 27.0105C176.371 26.8023 177 26.713 177.628 26.7478C178.257 26.7826 178.872 26.9407 179.439 27.2133C178.298 26.6574 177.423 25.6741 177.003 24.4767C176.583 23.2794 176.652 21.9648 177.196 20.8182C176.923 21.3855 176.542 21.8936 176.073 22.3134C175.604 22.7332 175.057 23.0565 174.463 23.2649C173.869 23.4733 173.24 23.5628 172.612 23.5281C171.983 23.4933 171.368 23.3352 170.801 23.0627C171.37 23.3328 171.88 23.713 172.301 24.1814C172.723 24.6498 173.047 25.197 173.256 25.7915C173.465 26.386 173.553 27.016 173.517 27.645C173.481 28.274 173.321 28.8896 173.045 29.4563Z" fill="white"/>
<path d="M9.10773 30.3032L11.4331 37.5293L16.5 30.7368C16.6108 30.5756 16.7388 30.4268 16.8815 30.2931C16.9936 30.2171 17.128 30.1809 17.2631 30.1905C17.4317 30.1905 17.6475 30.3726 17.9105 30.7368L22.6349 37.457L24.9227 30.3046H32.1878L25.5571 50.0694C25.2681 50.9163 24.7811 51.3397 24.096 51.3397C23.7159 51.3148 23.3481 51.1948 23.0264 50.9908C22.7047 50.7868 22.4394 50.5052 22.2548 50.172L16.5766 41.9791L10.4677 50.1966C10.2706 50.5131 10.0003 50.7775 9.67965 50.9677C9.35896 51.1578 8.99726 51.2681 8.62503 51.2892C7.9506 51.2892 7.45537 50.8657 7.13935 50.0188L0 30.3046L9.10773 30.3032Z" fill="#FFEC46"/>
<path d="M65.8608 34.2038C64.6925 34.2337 63.5445 34.5152 62.4949 35.029C61.38 35.5161 60.4123 36.287 59.6883 37.2648L57.8716 34.8006H53.7051V50.5896H61.2505V40.7318C61.2505 39.6392 61.5878 39.0929 62.2622 39.0929C63.7517 39.0929 64.497 40.3845 64.4979 42.9675V50.5896H72.094V39.817C72.1276 39.0533 71.9938 38.2915 71.702 37.585C71.4102 36.8785 70.9673 36.2444 70.4045 35.7271C69.139 34.6594 67.514 34.1146 65.8608 34.2038Z" fill="white"/>
<path d="M42.5786 34.2038C40.1928 34.1346 37.8705 34.9793 36.0867 36.5653C35.2429 37.3468 34.5729 38.297 34.1201 39.3543C33.6674 40.4116 33.4421 41.5522 33.4589 42.7022C33.4756 43.8522 33.7341 44.9859 34.2174 46.0295C34.7008 47.0731 35.3982 48.0034 36.2645 48.76C37.9908 50.2826 40.2251 51.103 42.5266 51.0593C44.0992 51.0598 45.6508 50.6989 47.0617 50.0043C48.4366 49.3448 49.6084 48.3269 50.4536 47.0575C51.309 45.759 51.7476 44.2302 51.7109 42.6756C51.7554 41.517 51.5414 40.363 51.0845 39.2974C50.6275 38.2317 49.9391 37.2812 49.0691 36.5147C47.2719 34.9577 44.9554 34.1329 42.5786 34.2038ZM45.0037 42.891C44.5729 43.6768 44.0246 44.3923 43.3778 45.0125C43.1094 45.2717 42.8111 45.4977 42.489 45.686C42.23 45.8365 41.9373 45.9194 41.6378 45.9274C41.403 45.9344 41.1694 45.8911 40.9528 45.8002C40.6934 45.6805 40.478 45.4826 40.3368 45.2343C40.1955 44.986 40.1355 44.6998 40.1651 44.4157C40.1956 43.6135 40.4272 42.8317 40.8386 42.1424C41.2632 41.35 41.8267 40.6402 42.502 40.0468C42.7893 39.7928 43.1097 39.5788 43.4544 39.4109C43.7244 39.2641 44.0246 39.1815 44.3317 39.1696C44.5586 39.1613 44.7845 39.2048 44.9921 39.2968C45.2313 39.425 45.4267 39.6216 45.5534 39.8616C45.6801 40.1016 45.7322 40.3739 45.7032 40.6437C45.6631 41.4397 45.4225 42.2128 45.0037 42.891Z" fill="white"/>
<path d="M86.7689 34.7197C85.7625 34.3992 84.7136 34.2321 83.6574 34.224C82.0172 34.0997 80.3738 34.4186 78.8992 35.1473C77.4245 35.876 76.1728 36.9877 75.2752 38.366C74.3375 39.9732 73.8791 41.8151 73.9542 43.6743C73.9248 44.6683 74.1119 45.6568 74.5024 46.5714C74.8929 47.486 75.4776 48.3048 76.216 48.971C77.6557 50.3138 79.5571 51.0508 81.5257 51.0289C82.7176 51.0546 83.8976 50.7878 84.9626 50.2519C86.0275 49.7161 86.945 48.9274 87.6346 47.955L89.4513 50.5853H94.1598V29.212H86.7661L86.7689 34.7197ZM86.7689 44.1064C85.7671 45.0646 84.4678 45.6515 83.0865 45.7698C82.8825 45.7678 82.6829 45.7109 82.5085 45.6051C82.273 45.4321 82.0871 45.2004 81.9692 44.9331C81.8513 44.6658 81.8055 44.3723 81.8364 44.0818C81.8482 43.301 82.0575 42.5358 82.4449 41.8576C82.635 41.5064 82.8654 41.1785 83.1313 40.8806C83.5904 40.2932 84.1856 39.8264 84.8656 39.5207C85.1744 39.387 85.5075 39.3181 85.844 39.3184C86.176 39.3163 86.5018 39.4085 86.7834 39.5843L86.7689 44.1064Z" fill="white"/>
<path d="M122.972 36.49V34.8006H115.325V50.5895H122.972V43.2189C122.98 42.7102 123.395 42.1726 124.216 41.6061C124.91 41.0826 125.748 40.7854 126.617 40.7549V34.2283C125.892 34.3068 125.193 34.5457 124.572 34.9278C123.93 35.3243 123.383 35.8577 122.972 36.49Z" fill="white"/>
<path d="M171.699 34.2038C170.53 34.2338 169.382 34.5152 168.333 35.029C167.218 35.5161 166.25 36.287 165.526 37.2648L163.71 34.8007H159.543V50.5896H167.088V40.7318C167.088 39.6392 167.426 39.093 168.1 39.093C169.59 39.093 170.335 40.3845 170.336 42.9676V50.5896H177.932V39.817C177.966 39.0545 177.832 38.2938 177.542 37.5881C177.251 36.8824 176.809 36.2488 176.248 35.7314C174.982 34.6608 173.354 34.1144 171.699 34.2038Z" fill="white"/>
<path d="M151.045 36.743C150.787 36.3416 150.475 35.9778 150.117 35.662C149.055 34.7067 147.672 34.1856 146.244 34.2023C144.772 34.2042 143.328 34.6037 142.064 35.3585C141.419 35.7324 140.829 36.1945 140.311 36.7314C139.193 37.8617 138.395 39.2686 137.999 40.8084C137.764 41.751 137.653 42.7202 137.67 43.6916C137.661 44.758 137.864 45.8156 138.266 46.8031C138.634 47.7049 139.188 48.5189 139.892 49.192C140.565 49.8155 141.361 50.2915 142.229 50.5896C143.031 50.8866 143.878 51.0411 144.732 51.0462C145.961 51.1199 147.189 50.8743 148.295 50.3334C149.401 49.7925 150.348 48.9746 151.045 47.9593L152.862 50.5896H157.027V34.8006H152.86L151.045 36.743ZM150.178 44.0847C149.481 44.6719 148.697 45.1473 147.854 45.4938C147.565 45.6662 147.239 45.7665 146.902 45.7864C146.566 45.8063 146.231 45.7451 145.923 45.6079C145.683 45.4264 145.494 45.1861 145.374 44.9102C145.253 44.6343 145.206 44.332 145.237 44.0326C145.273 42.8774 145.714 41.7717 146.482 40.9081C146.838 40.4658 147.262 40.0841 147.74 39.7779C148.135 39.4991 148.602 39.3405 149.085 39.3213C149.467 39.3105 149.844 39.4023 150.178 39.5872V44.0847Z" fill="white"/>
<path d="M135.573 29.212H128.371V50.5896H135.573V29.212Z" fill="white"/>
<path d="M105.329 45.1021C107.378 45.2093 109.4 44.5957 111.044 43.3678C111.68 42.9186 112.202 42.328 112.57 41.6426C112.938 40.9572 113.142 40.1957 113.166 39.418C113.177 38.702 113.023 37.9929 112.717 37.3455C112.411 36.6981 111.96 36.1295 111.4 35.6836C109.896 34.5736 108.044 34.0375 106.18 34.1719C104.467 34.1576 102.772 34.5177 101.213 35.2269C99.729 35.8878 98.4646 36.9582 97.5678 38.3125C96.6004 39.8053 96.0975 41.5515 96.1226 43.3302C96.0691 44.4308 96.2731 45.5286 96.7184 46.5365C97.1638 47.5443 97.8381 48.4343 98.6879 49.1357C100.287 50.4219 102.289 51.1012 104.34 51.0534C108.159 51.0534 111.013 50.2345 112.902 48.5966L112.114 44.6468C111.261 45.3864 110.261 45.9362 109.18 46.2597C108.307 46.5536 107.396 46.7205 106.475 46.7554C106.194 46.7554 105.905 46.7429 105.608 46.7178C105.389 46.731 105.17 46.6971 104.966 46.6182C104.761 46.5393 104.576 46.4173 104.423 46.2606C104.27 46.1039 104.153 45.9161 104.079 45.71C104.005 45.5038 103.976 45.2842 103.995 45.066C104.197 45.0833 104.409 45.0919 104.629 45.0919L105.329 45.1021ZM104.197 40.6812C104.238 40.2586 104.323 39.8415 104.451 39.4368C104.543 39.0925 104.744 38.7868 105.023 38.5649C105.302 38.3429 105.644 38.2164 106.001 38.2041C106.695 38.2041 107.043 38.5769 107.043 39.3227L107.018 39.6117L106.777 41.5555L103.995 42.177C104.086 41.6451 104.154 41.1465 104.197 40.6812Z" fill="white"/>
<path d="M192.606 29.212V34.7197C191.599 34.3992 190.55 34.2321 189.494 34.224C187.854 34.0997 186.211 34.4186 184.736 35.1473C183.261 35.876 182.01 36.9877 181.112 38.366C180.174 39.9732 179.716 41.8151 179.791 43.6743C179.762 44.6683 179.949 45.6568 180.339 46.5714C180.73 47.486 181.315 48.3048 182.053 48.971C183.493 50.3138 185.394 51.0508 187.363 51.0289C188.555 51.0546 189.735 50.7878 190.799 50.2519C191.864 49.7161 192.782 48.9274 193.472 47.955L195.288 50.5853H200.001V29.212H192.606ZM189.616 47.2931C189.616 45.9515 189.083 44.6649 188.134 43.7163C187.186 42.7677 185.899 42.2348 184.557 42.2348C185.897 42.2276 187.179 41.6924 188.126 40.7453C189.073 39.7983 189.608 38.5159 189.616 37.1766C189.616 38.5181 190.149 39.8047 191.097 40.7533C192.046 41.7019 193.332 42.2348 194.674 42.2348C194.009 42.2316 193.35 42.3602 192.734 42.6132C192.119 42.8663 191.56 43.2387 191.09 43.7091C190.62 44.1794 190.247 44.7384 189.994 45.3535C189.741 45.9687 189.612 46.6279 189.616 47.2931Z" fill="white"/>
</g>
<defs>
<clipPath id="clip0_4578_44595">
<rect width="200" height="51.3383" fill="white"/>
</clipPath>
</defs>
</svg>
