<svg width="248" height="91" viewBox="0 0 248 91" fill="none" xmlns="http://www.w3.org/2000/svg">
<rect width="248" height="91" fill="#4A43EC"/>
<g clip-path="url(#clip0_4578_44613)">
<path d="M153.039 25.1887C150.999 24.741 149.197 23.555 147.979 21.8586C146.762 20.1623 146.214 18.0756 146.443 16C146.345 16.4435 146.212 16.8785 146.045 17.3007C145.582 18.433 144.772 19.3897 143.732 20.034C142.692 20.6782 141.475 20.9771 140.254 20.8877C102.696 18.4915 72.3467 44.7063 72.3467 44.7063C98.3605 25.7176 128.187 24.5817 138.49 25.3578C139.263 25.4139 140.017 25.6241 140.708 25.976C141.399 26.3279 142.012 26.8144 142.512 27.4069C143.012 27.9994 143.389 28.6859 143.619 29.4261C143.85 30.1662 143.93 30.945 143.856 31.7167V31.7831C144.304 29.7451 145.489 27.9445 147.184 26.7273C148.879 25.5101 150.964 24.9621 153.039 25.1887Z" fill="white"/>
<path fill-rule="evenodd" clip-rule="evenodd" d="M171.806 31.9493C171.188 31.3269 170.698 30.5887 170.365 29.777C170.032 28.9653 169.862 28.096 169.866 27.2187C169.869 26.3414 170.044 25.4734 170.383 24.6641C170.722 23.8548 171.216 23.12 171.839 22.5019C170.577 23.742 168.877 24.4338 167.108 24.4271C165.339 24.4203 163.644 23.7155 162.392 22.4658C163.64 23.7234 164.338 25.4256 164.332 27.1978C164.326 28.9701 163.616 30.6673 162.358 31.9161C162.979 31.294 163.716 30.8011 164.528 30.4658C165.34 30.1305 166.211 29.9595 167.089 29.9625C167.967 29.9656 168.837 30.1428 169.646 30.4838C170.456 30.8248 171.19 31.3229 171.806 31.9493Z" fill="white"/>
<path fill-rule="evenodd" clip-rule="evenodd" d="M185.883 38.2909C185.736 37.609 185.724 36.9048 185.85 36.2186C185.975 35.5323 186.234 34.8774 186.612 34.2914C186.991 33.7053 187.481 33.1995 188.054 32.8028C188.628 32.4062 189.275 32.1265 189.957 31.9797C188.58 32.2689 187.145 32.003 185.963 31.2398C184.782 30.4766 183.949 29.2779 183.647 27.9042C183.794 28.5862 183.805 29.2905 183.68 29.9768C183.554 30.6631 183.295 31.318 182.917 31.9041C182.538 32.4902 182.048 32.996 181.474 33.3926C180.9 33.7891 180.253 34.0688 179.571 34.2154C180.254 34.0647 180.959 34.0508 181.647 34.1744C182.334 34.2981 182.991 34.557 183.577 34.936C184.164 35.315 184.67 35.8067 185.066 36.3826C185.462 36.9584 185.739 37.6071 185.883 38.2909Z" fill="white"/>
<path fill-rule="evenodd" clip-rule="evenodd" d="M197.045 45.4563C197.318 44.8891 197.699 44.3813 198.168 43.9616C198.637 43.542 199.184 43.2188 199.777 43.0105C200.371 42.8023 201 42.713 201.628 42.7478C202.257 42.7826 202.872 42.9407 203.439 43.2133C202.298 42.6574 201.423 41.6741 201.003 40.4767C200.583 39.2794 200.652 37.9648 201.196 36.8182C200.923 37.3855 200.542 37.8936 200.073 38.3134C199.604 38.7332 199.057 39.0565 198.463 39.2649C197.869 39.4733 197.24 39.5628 196.612 39.5281C195.983 39.4933 195.368 39.3352 194.801 39.0627C195.37 39.3328 195.88 39.713 196.301 40.1814C196.723 40.6498 197.047 41.197 197.256 41.7915C197.465 42.386 197.553 43.016 197.517 43.645C197.481 44.274 197.321 44.8896 197.045 45.4563Z" fill="white"/>
<path d="M33.1077 46.3032L35.4331 53.5293L40.5 46.7368C40.6108 46.5756 40.7388 46.4268 40.8815 46.2931C40.9936 46.2171 41.128 46.1809 41.2631 46.1905C41.4317 46.1905 41.6475 46.3726 41.9105 46.7368L46.6349 53.457L48.9227 46.3046H56.1878L49.5571 66.0694C49.2681 66.9163 48.7811 67.3397 48.096 67.3397C47.7159 67.3148 47.3481 67.1948 47.0264 66.9908C46.7047 66.7868 46.4394 66.5052 46.2548 66.172L40.5766 57.9791L34.4677 66.1966C34.2706 66.5131 34.0003 66.7775 33.6797 66.9677C33.359 67.1578 32.9973 67.2681 32.625 67.2892C31.9506 67.2892 31.4554 66.8657 31.1394 66.0188L24 46.3046L33.1077 46.3032Z" fill="#FFEC46"/>
<path d="M89.8608 50.2038C88.6925 50.2337 87.5445 50.5152 86.4949 51.029C85.38 51.5161 84.4123 52.287 83.6883 53.2648L81.8716 50.8006H77.7051V66.5896H85.2505V56.7318C85.2505 55.6392 85.5878 55.0929 86.2622 55.0929C87.7517 55.0929 88.497 56.3845 88.4979 58.9675V66.5896H96.094V55.817C96.1276 55.0533 95.9938 54.2915 95.702 53.585C95.4102 52.8785 94.9673 52.2444 94.4045 51.7271C93.139 50.6594 91.514 50.1146 89.8608 50.2038Z" fill="white"/>
<path d="M66.5786 50.2038C64.1928 50.1346 61.8705 50.9793 60.0867 52.5653C59.2429 53.3468 58.5729 54.297 58.1201 55.3543C57.6674 56.4116 57.4421 57.5522 57.4589 58.7022C57.4756 59.8522 57.7341 60.9859 58.2174 62.0295C58.7008 63.0731 59.3982 64.0034 60.2645 64.76C61.9908 66.2826 64.2251 67.103 66.5266 67.0593C68.0992 67.0598 69.6508 66.6989 71.0617 66.0043C72.4366 65.3448 73.6084 64.3269 74.4536 63.0575C75.309 61.759 75.7476 60.2302 75.7109 58.6756C75.7554 57.517 75.5414 56.363 75.0845 55.2974C74.6275 54.2317 73.9391 53.2812 73.0691 52.5147C71.2719 50.9577 68.9554 50.1329 66.5786 50.2038ZM69.0037 58.891C68.5729 59.6768 68.0246 60.3923 67.3778 61.0125C67.1094 61.2717 66.8111 61.4977 66.489 61.686C66.23 61.8365 65.9373 61.9194 65.6378 61.9274C65.403 61.9344 65.1694 61.8911 64.9528 61.8002C64.6934 61.6805 64.478 61.4826 64.3368 61.2343C64.1955 60.986 64.1355 60.6998 64.1651 60.4157C64.1956 59.6135 64.4272 58.8317 64.8386 58.1424C65.2632 57.35 65.8267 56.6402 66.502 56.0468C66.7893 55.7928 67.1097 55.5788 67.4544 55.4109C67.7244 55.2641 68.0246 55.1815 68.3317 55.1696C68.5586 55.1613 68.7845 55.2048 68.9921 55.2968C69.2313 55.425 69.4267 55.6216 69.5534 55.8616C69.6801 56.1016 69.7322 56.3739 69.7032 56.6437C69.6631 57.4397 69.4225 58.2128 69.0037 58.891Z" fill="white"/>
<path d="M110.769 50.7197C109.763 50.3992 108.714 50.2321 107.657 50.224C106.017 50.0997 104.374 50.4186 102.899 51.1473C101.424 51.876 100.173 52.9877 99.2752 54.366C98.3375 55.9732 97.8791 57.8151 97.9542 59.6743C97.9248 60.6683 98.1119 61.6568 98.5024 62.5714C98.8929 63.486 99.4776 64.3048 100.216 64.971C101.656 66.3138 103.557 67.0508 105.526 67.0289C106.718 67.0546 107.898 66.7878 108.963 66.2519C110.028 65.7161 110.945 64.9274 111.635 63.955L113.451 66.5853H118.16V45.212H110.766L110.769 50.7197ZM110.769 60.1064C109.767 61.0646 108.468 61.6515 107.087 61.7698C106.883 61.7678 106.683 61.7109 106.508 61.6051C106.273 61.4321 106.087 61.2004 105.969 60.9331C105.851 60.6658 105.805 60.3723 105.836 60.0818C105.848 59.301 106.058 58.5358 106.445 57.8576C106.635 57.5064 106.865 57.1785 107.131 56.8806C107.59 56.2932 108.186 55.8264 108.866 55.5207C109.174 55.387 109.507 55.3181 109.844 55.3184C110.176 55.3163 110.502 55.4085 110.783 55.5843L110.769 60.1064Z" fill="white"/>
<path d="M146.972 52.49V50.8006H139.325V66.5895H146.972V59.2189C146.98 58.7102 147.395 58.1726 148.216 57.6061C148.91 57.0826 149.748 56.7854 150.617 56.7549V50.2283C149.892 50.3068 149.193 50.5457 148.572 50.9278C147.93 51.3243 147.383 51.8577 146.972 52.49Z" fill="white"/>
<path d="M195.699 50.2038C194.53 50.2338 193.382 50.5152 192.333 51.029C191.218 51.5161 190.25 52.287 189.526 53.2648L187.71 50.8007H183.543V66.5896H191.088V56.7318C191.088 55.6392 191.426 55.093 192.1 55.093C193.59 55.093 194.335 56.3845 194.336 58.9676V66.5896H201.932V55.817C201.966 55.0545 201.832 54.2938 201.542 53.5881C201.251 52.8824 200.809 52.2488 200.248 51.7314C198.982 50.6608 197.354 50.1144 195.699 50.2038Z" fill="white"/>
<path d="M175.045 52.743C174.787 52.3416 174.475 51.9778 174.117 51.662C173.055 50.7067 171.672 50.1856 170.244 50.2023C168.772 50.2042 167.328 50.6037 166.064 51.3585C165.419 51.7324 164.829 52.1945 164.311 52.7314C163.193 53.8617 162.395 55.2686 161.999 56.8084C161.764 57.751 161.653 58.7202 161.67 59.6916C161.661 60.758 161.864 61.8156 162.266 62.8031C162.634 63.7049 163.188 64.5189 163.892 65.192C164.565 65.8155 165.361 66.2915 166.229 66.5896C167.031 66.8866 167.878 67.0411 168.732 67.0462C169.961 67.1199 171.189 66.8743 172.295 66.3334C173.401 65.7925 174.348 64.9746 175.045 63.9593L176.862 66.5896H181.027V50.8006H176.86L175.045 52.743ZM174.178 60.0847C173.481 60.6719 172.697 61.1473 171.854 61.4938C171.565 61.6662 171.239 61.7665 170.902 61.7864C170.566 61.8063 170.231 61.7451 169.923 61.6079C169.683 61.4264 169.494 61.1861 169.374 60.9102C169.253 60.6343 169.206 60.332 169.237 60.0326C169.273 58.8774 169.714 57.7717 170.482 56.9081C170.838 56.4658 171.262 56.0841 171.74 55.7779C172.135 55.4991 172.602 55.3405 173.085 55.3213C173.467 55.3105 173.844 55.4023 174.178 55.5872V60.0847Z" fill="white"/>
<path d="M159.573 45.212H152.371V66.5896H159.573V45.212Z" fill="white"/>
<path d="M129.329 61.1021C131.378 61.2093 133.4 60.5957 135.044 59.3678C135.68 58.9186 136.202 58.328 136.57 57.6426C136.938 56.9572 137.142 56.1957 137.166 55.418C137.177 54.702 137.023 53.9929 136.717 53.3455C136.411 52.6981 135.96 52.1295 135.4 51.6836C133.896 50.5736 132.044 50.0375 130.18 50.1719C128.467 50.1576 126.772 50.5177 125.213 51.2269C123.729 51.8878 122.465 52.9582 121.568 54.3125C120.6 55.8053 120.098 57.5515 120.123 59.3302C120.069 60.4308 120.273 61.5286 120.718 62.5365C121.164 63.5443 121.838 64.4343 122.688 65.1357C124.287 66.4219 126.289 67.1012 128.34 67.0534C132.159 67.0534 135.013 66.2345 136.902 64.5966L136.114 60.6468C135.261 61.3864 134.261 61.9362 133.18 62.2597C132.307 62.5536 131.396 62.7205 130.475 62.7554C130.194 62.7554 129.905 62.7429 129.608 62.7178C129.389 62.731 129.17 62.6971 128.966 62.6182C128.761 62.5393 128.576 62.4173 128.423 62.2606C128.27 62.1039 128.153 61.9161 128.079 61.71C128.005 61.5038 127.976 61.2842 127.995 61.066C128.197 61.0833 128.409 61.0919 128.629 61.0919L129.329 61.1021ZM128.197 56.6812C128.238 56.2586 128.323 55.8415 128.451 55.4368C128.543 55.0925 128.744 54.7868 129.023 54.5649C129.302 54.3429 129.644 54.2164 130.001 54.2041C130.695 54.2041 131.043 54.5769 131.043 55.3227L131.018 55.6117L130.777 57.5555L127.995 58.177C128.086 57.6451 128.154 57.1465 128.197 56.6812Z" fill="white"/>
<path d="M216.606 45.212V50.7197C215.599 50.3992 214.55 50.2321 213.494 50.224C211.854 50.0997 210.211 50.4186 208.736 51.1473C207.261 51.876 206.01 52.9877 205.112 54.366C204.174 55.9732 203.716 57.8151 203.791 59.6743C203.762 60.6683 203.949 61.6568 204.339 62.5714C204.73 63.486 205.315 64.3048 206.053 64.971C207.493 66.3138 209.394 67.0508 211.363 67.0289C212.555 67.0546 213.735 66.7878 214.799 66.2519C215.864 65.7161 216.782 64.9274 217.472 63.955L219.288 66.5853H224.001V45.212H216.606ZM213.616 63.2931C213.616 61.9515 213.083 60.6649 212.134 59.7163C211.186 58.7677 209.899 58.2348 208.557 58.2348C209.897 58.2276 211.179 57.6924 212.126 56.7453C213.073 55.7983 213.608 54.5159 213.616 53.1766C213.616 54.5181 214.149 55.8047 215.097 56.7533C216.046 57.7019 217.332 58.2348 218.674 58.2348C218.009 58.2316 217.35 58.3602 216.734 58.6132C216.119 58.8663 215.56 59.2387 215.09 59.7091C214.62 60.1794 214.247 60.7384 213.994 61.3535C213.741 61.9687 213.612 62.6279 213.616 63.2931Z" fill="white"/>
</g>
<defs>
<clipPath id="clip0_4578_44613">
<rect width="200" height="51.3383" fill="white" transform="translate(24 16)"/>
</clipPath>
</defs>
</svg>
